#!OML:ASF E:\motion texture\Top Level 1\Subject 1\Session 1\male.ASF
:FULLY-SPECIFIED
:DEGREES
238
root -1.10975 18.0344 5.16223 122.436 -80.129 -115.816
lowerback -1.15307 -0.374447 7.48053
upperback -1.29851 -0.720574 5.52784
thorax -0.706544 -0.481403 1.51319
lowerneck -11.3032 -4.82145 -4.72049
upperneck 27.6127 -7.84285 4.02265
head 11.1359 -3.8833 1.18804
rclavicle -1.27719e-014 -1.43125e-014
rhumerus -3.87865 9.51744 -66.583
rradius 56.4186
rwrist -2.92133
rhand 3.49348 -16.3999
rfingers 7.12502
rthumb 28.932 -44.1754
lclavicle -1.27719e-014 -1.43125e-014
lhumerus -8.74105 -20.0728 89.2018
lradius 66.3026
lwrist -6.10153
lhand 1.08123 14.5352
lfingers 7.12502
lthumb 26.6256 42.683
rfemur -4.17225 5.43856 32.9029
rtibia 15.0551
rfoot -11.3734 -12.0307
rtoes 9.75353
lfemur -28.7637 3.10029 -4.99022
ltibia 29.7705
lfoot -8.91742 9.45028
ltoes -17.3956
239
root -1.22956 18.0216 5.16825 122.856 -80.0055 -116.156
lowerback -1.18474 -0.29267 7.53628
upperback -1.31917 -0.613674 5.49808
thorax -0.708077 -0.428874 1.45185
lowerneck -11.3585 -4.83431 -4.70852
upperneck 27.6323 -7.86125 4.02427
head 11.155 -3.88825 1.1825
rclavicle 2.48481e-015 3.4191e-014
rhumerus -3.29565 7.59384 -66.1231
rradius 56.3732
rwrist -4.60591
rhand 3.12182 -16.7756
rfingers 7.12502
rthumb 28.577 -44.6113
lclavicle 2.48481e-015 3.4191e-014
lhumerus -8.45477 -19.0401 88.6676
lradius 66.948
lwrist -3.71815
lhand 2.04071 14.8239
lfingers 7.12502
lthumb 27.5435 42.8289
rfemur -3.89325 5.48954 32.9856
rtibia 15.2105
rfoot -11.711 -12.0885
rtoes 9.24748
lfemur -28.7053 2.75217 -4.66835
ltibia 27.3015
lfoot -8.24502 9.59223
ltoes -17.5753
240
root -1.35024 18.0079 5.17494 123.226 -79.8793 -116.437
lowerback -1.2305 -0.211484 7.60246
upperback -1.34064 -0.509452 5.46839
thorax -0.702393 -0.377695 1.3848
lowerneck -11.4026 -4.85136 -4.69803
upperneck 27.6418 -7.8841 4.02324
head 11.1682 -3.89588 1.17602
rclavicle 7.00716e-015 -3.57812e-014
rhumerus -2.70905 5.53344 -65.75
rradius 56.2662
rwrist -6.41333
rhand 2.4152 -17.404
rfingers 7.12502
rthumb 27.9016 -45.3513
lclavicle 7.00716e-015 -3.57812e-014
lhumerus -8.16463 -17.897 88.1702
lradius 67.5118
lwrist -1.26349
lhand 2.65029 15.2002
lfingers 7.12502
lthumb 28.1263 43.1108
rfemur -3.6178 5.52554 33.0711
rtibia 15.3629
rfoot -12.03 -12.1435
rtoes 8.68453
lfemur -28.6152 2.35508 -4.31973
ltibia 24.8017
lfoot -7.61094 9.76649
ltoes -17.8401
241
root -1.47206 17.9935 5.18228 123.525 -79.752 -116.641
lowerback -1.2901 -0.129331 7.67634
upperback -1.36254 -0.405816 5.4387
thorax -0.689108 -0.326761 1.31355
lowerneck -11.4328 -4.87803 -4.68309
upperneck 27.6417 -7.92017 4.0168
head 11.1752 -3.91 1.16547
rclavicle 1.49089e-014 1.27222e-014
rhumerus -2.12346 3.33958 -65.4599
rradius 56.1187
rwrist -8.29676
rhand 1.43782 -18.2549
rfingers 7.12502
rthumb 26.9668 -46.3505
lclavicle 1.49089e-014 1.27222e-014
lhumerus -7.86859 -16.667 87.7146
lradius 67.9971
lwrist 1.24286
lhand 2.91113 15.7271
lfingers 7.12502
lthumb 28.3756 43.5965
rfemur -3.33811 5.53116 33.1591
rtibia 15.5117
rfoot -12.3405 -12.192
rtoes 8.07895
lfemur -28.4974 1.90105 -3.94368
ltibia 22.3056
lfoot -7.08203 10.0008
ltoes -18.2266
242
root -1.59507 17.9781 5.19055 123.776 -79.6251 -116.791
lowerback -1.36643 -0.0465649 7.75708
upperback -1.38789 -0.303429 5.40973
thorax -0.66971 -0.276505 1.23938
lowerneck -11.4369 -4.91036 -4.67277
upperneck 27.6303 -7.964 4.01032
head 11.1733 -3.92883 1.15541
rclavicle -3.27995e-015 2.38542e-015
rhumerus -1.52458 1.01144 -65.2635
rradius 55.9334
rwrist -10.1824
rhand 0.256677 -19.313
rfingers 7.12502
rthumb 25.8362 -47.5782
lclavicle -3.27995e-015 2.38542e-015
lhumerus -7.55612 -15.3426 87.3092
lradius 68.3882
lwrist 3.77541
lhand 2.76943 16.342
lfingers 7.12502
lthumb 28.2402 44.2339
rfemur -3.06056 5.49896 33.2415
rtibia 15.6588
rfoot -12.6387 -12.2262
rtoes 7.41597
lfemur -28.367 1.39003 -3.54605
ltibia 19.8491
lfoot -6.7 10.3141
ltoes -18.6592
243
root -1.71933 17.9619 5.19985 123.973 -79.4979 -116.883
lowerback -1.44846 0.0355104 7.84418
upperback -1.42078 -0.202443 5.38273
thorax -0.65462 -0.227356 1.16401
lowerneck -11.4162 -4.94539 -4.66785
upperneck 27.613 -8.0122 4.00529
head 11.1647 -3.95082 1.14691
rclavicle -5.76476e-015 -4.37326e-014
rhumerus -0.920054 -1.44681 -65.1645
rradius 55.7437
rwrist -12.0556
rhand -1.00268 -20.5094
rfingers 7.12502
rthumb 24.6296 -48.9447
lclavicle -5.76476e-015 -4.37326e-014
lhumerus -7.24298 -13.9298 86.9576
lradius 68.7087
lwrist 6.35157
lhand 2.30814 17.0419
lfingers 7.12502
lthumb 27.7992 45.0058
rfemur -2.78212 5.43356 33.3186
rtibia 15.8054
rfoot -12.9516 -12.2442
rtoes 6.78778
lfemur -28.2287 0.826502 -3.12926
ltibia 17.4624
lfoot -6.49855 10.7098
ltoes -19.0278
244
root -1.84413 17.945 5.20989 124.093 -79.3807 -116.892
lowerback -1.53313 0.112441 7.9269
upperback -1.46255 -0.108026 5.35676
thorax -0.647124 -0.18185 1.09233
lowerneck -11.3704 -4.98157 -4.66855
upperneck 27.5921 -8.06348 4.00369
head 11.1504 -3.97525 1.14091
rclavicle 1.54058e-014 -5.1684e-014
rhumerus -0.294679 -4.02991 -65.1693
rradius 55.5559
rwrist -13.9302
rhand -2.18576 -21.7215
rfingers 7.12502
rthumb 23.4952 -50.3067
lclavicle 1.54058e-014 -5.1684e-014
lhumerus -6.90713 -12.434 86.6576
lradius 68.9517
lwrist 9.01328
lhand 1.66307 17.8135
lfingers 7.12502
lthumb 27.1823 45.8755
rfemur -2.5115 5.34867 33.3854
rtibia 15.9577
rfoot -13.2683 -12.2563
rtoes 6.16128
lfemur -28.1076 0.228013 -2.7107
ltibia 15.1933
lfoot -6.45726 11.1699
ltoes -19.335
